<mxfile host="app.diagrams.net" agent="Mozilla/5.0 (Windows NT 10.0; Win64; x64) AppleWebKit/537.36 (KHTML, like Gecko) Chrome/129.0.0.0 Safari/537.36" version="24.7.17">
  <diagram name="Page-1" id="m1AeP7CiLd4uVZnb1eMl">
    <mxGraphModel dx="1434" dy="746" grid="1" gridSize="15" guides="1" tooltips="1" connect="1" arrows="1" fold="1" page="1" pageScale="1" pageWidth="1400" pageHeight="850" math="0" shadow="0">
      <root>
        <mxCell id="0" />
        <mxCell id="1" parent="0" />
        <mxCell id="qOn3c0fMLaJOuiDGU39c-4" value="&lt;div&gt;Gateway&lt;/div&gt;Service" style="rounded=1;whiteSpace=wrap;html=1;" vertex="1" parent="1">
          <mxGeometry x="315" y="30" width="550" height="485" as="geometry" />
        </mxCell>
        <mxCell id="qOn3c0fMLaJOuiDGU39c-20" value="" style="edgeStyle=orthogonalEdgeStyle;rounded=0;orthogonalLoop=1;jettySize=auto;html=1;" edge="1" parent="1" source="qOn3c0fMLaJOuiDGU39c-2" target="qOn3c0fMLaJOuiDGU39c-19">
          <mxGeometry relative="1" as="geometry" />
        </mxCell>
        <mxCell id="qOn3c0fMLaJOuiDGU39c-2" value="Services" style="rounded=1;whiteSpace=wrap;html=1;" vertex="1" parent="1">
          <mxGeometry x="40" y="40" width="190" height="120" as="geometry" />
        </mxCell>
        <mxCell id="qOn3c0fMLaJOuiDGU39c-3" value="Frontend" style="rounded=1;whiteSpace=wrap;html=1;" vertex="1" parent="1">
          <mxGeometry x="1140" y="212.5" width="190" height="120" as="geometry" />
        </mxCell>
        <mxCell id="qOn3c0fMLaJOuiDGU39c-6" value="" style="edgeStyle=orthogonalEdgeStyle;rounded=0;orthogonalLoop=1;jettySize=auto;html=1;" edge="1" parent="1" source="qOn3c0fMLaJOuiDGU39c-4" target="qOn3c0fMLaJOuiDGU39c-3">
          <mxGeometry relative="1" as="geometry" />
        </mxCell>
        <mxCell id="qOn3c0fMLaJOuiDGU39c-15" value="" style="edgeStyle=orthogonalEdgeStyle;rounded=0;orthogonalLoop=1;jettySize=auto;html=1;" edge="1" parent="1" source="qOn3c0fMLaJOuiDGU39c-7" target="qOn3c0fMLaJOuiDGU39c-14">
          <mxGeometry relative="1" as="geometry" />
        </mxCell>
        <mxCell id="qOn3c0fMLaJOuiDGU39c-7" value="Services" style="rounded=1;whiteSpace=wrap;html=1;" vertex="1" parent="1">
          <mxGeometry x="40" y="195" width="190" height="120" as="geometry" />
        </mxCell>
        <mxCell id="qOn3c0fMLaJOuiDGU39c-17" value="" style="edgeStyle=orthogonalEdgeStyle;rounded=0;orthogonalLoop=1;jettySize=auto;html=1;" edge="1" parent="1" source="qOn3c0fMLaJOuiDGU39c-9" target="qOn3c0fMLaJOuiDGU39c-16">
          <mxGeometry relative="1" as="geometry" />
        </mxCell>
        <mxCell id="qOn3c0fMLaJOuiDGU39c-9" value="Services" style="rounded=1;whiteSpace=wrap;html=1;" vertex="1" parent="1">
          <mxGeometry x="40" y="330" width="190" height="120" as="geometry" />
        </mxCell>
        <mxCell id="qOn3c0fMLaJOuiDGU39c-14" value="" style="ellipse;whiteSpace=wrap;html=1;rounded=1;" vertex="1" parent="1">
          <mxGeometry x="365" y="215" width="80" height="80" as="geometry" />
        </mxCell>
        <mxCell id="qOn3c0fMLaJOuiDGU39c-16" value="" style="ellipse;whiteSpace=wrap;html=1;rounded=1;" vertex="1" parent="1">
          <mxGeometry x="365" y="350" width="80" height="80" as="geometry" />
        </mxCell>
        <mxCell id="qOn3c0fMLaJOuiDGU39c-19" value="" style="ellipse;whiteSpace=wrap;html=1;rounded=1;" vertex="1" parent="1">
          <mxGeometry x="365" y="60" width="80" height="80" as="geometry" />
        </mxCell>
      </root>
    </mxGraphModel>
  </diagram>
</mxfile>
